<?xml version="1.0" encoding="utf-8"?>
<!-- Generator: Adobe Illustrator 15.0.0, SVG Export Plug-In . SVG Version: 6.00 Build 0)  -->
<!DOCTYPE svg PUBLIC "-//W3C//DTD SVG 1.1//EN" "http://www.w3.org/Graphics/SVG/1.1/DTD/svg11.dtd">
<svg version="1.1" id="Layer_1" xmlns="http://www.w3.org/2000/svg" xmlns:xlink="http://www.w3.org/1999/xlink" x="0px" y="0px"
	 width="640px" height="206px" viewBox="0 0 640 206" enable-background="new 0 0 640 206" xml:space="preserve">
<g>
	<rect x="611.765" y="10.497" fill="#7C7B7B" width="23.656" height="23.657"/>
	<polygon fill="#FFFFFF" points="193.832,26.268 4.579,26.268 4.579,105.123 170.175,105.123 170.175,136.664 4.579,136.664 
		4.579,160.322 193.832,160.322 193.832,81.466 28.236,81.466 28.236,49.924 193.832,49.924 	"/>
	<path fill="#FFFFFF" d="M217.488,26.268v134.055h23.656v-55.199h141.939v55.199h23.657V26.268H217.488z M383.084,81.466H241.145
		V49.924h141.939V81.466z"/>
	<polygon fill="#FFFFFF" points="430.397,26.268 430.397,160.322 595.993,160.322 595.993,136.664 454.054,136.664 454.054,49.924 
		595.993,49.924 595.993,26.268 	"/>
	<rect x="595.993" y="49.924" fill="#FFFFFF" width="23.656" height="86.74"/>
	<rect x="603.879" y="18.382" fill="#FFFFFF" width="23.656" height="23.656"/>
	<g>
		<path fill="#FFFFFF" d="M21.748,172.75c3.864,0,6.925,1.027,9.184,3.082s3.389,4.809,3.389,8.264c0,3.168-1.196,5.807-3.588,7.912
			c-2.228,1.963-4.988,2.943-8.279,2.943H7.703V172.75H21.748z M22.76,191.639c2.208,0,4.022-0.713,5.443-2.139
			c1.42-1.426,2.131-3.258,2.131-5.496c0-2.379-0.762-4.299-2.285-5.758c-1.523-1.457-3.522-2.184-5.995-2.184H11.382v15.576H22.76z
			"/>
		<path fill="#FFFFFF" d="M60.171,194.951H39.871v-18.859h19.596v3.312H43.551v4.078h11.07v3.312h-11.07v4.844h16.621V194.951z"/>
		<path fill="#FFFFFF" d="M82.005,180.754c-2.453-1.289-5.121-1.934-8.003-1.934c-4.191,0-6.287,0.748-6.287,2.238
			c0,0.881,0.787,1.453,2.361,1.719c2.147,0.184,4.293,0.379,6.44,0.582c3.086,0.307,5.284,0.859,6.593,1.656
			c1.452,0.879,2.177,2.219,2.177,4.018c0,2.023-0.904,3.588-2.714,4.691c-1.809,1.105-4.431,1.656-7.866,1.656
			c-4.846,0-8.72-1.104-11.622-3.312l1.993-2.605c2.596,1.82,5.786,2.729,9.567,2.729c2.126,0,3.773-0.27,4.938-0.812
			c1.166-0.541,1.748-1.262,1.748-2.162c0-1-0.716-1.707-2.146-2.115c-0.798-0.225-2.035-0.379-3.711-0.461
			c-2.618-0.123-4.222-0.215-4.815-0.275c-2.331-0.225-4.048-0.725-5.152-1.502c-1.104-0.777-1.655-1.912-1.655-3.404
			c0-1.799,0.884-3.225,2.652-4.277c1.768-1.055,4.248-1.58,7.437-1.58c4.252,0,7.697,0.92,10.334,2.76L82.005,180.754z"/>
		<path fill="#FFFFFF" d="M112.18,194.951h-4.051l-2.169-4.047H93.286l-2.17,4.047h-4.051l10.273-18.859h4.569L112.18,194.951z
			 M104.121,187.592l-4.48-8.354l-4.516,8.354H104.121z"/>
		<path fill="#FFFFFF" d="M138,194.951h-4.216l-4.937-6.93h-9.369v6.93h-3.68v-18.859h15.241c2.003,0,3.598,0.543,4.784,1.625
			c1.185,1.084,1.778,2.535,1.778,4.355c0,3.127-1.563,5.039-4.691,5.734L138,194.951z M130.488,184.709
			c2.228,0,3.342-0.857,3.342-2.574c0-1.82-1.186-2.73-3.557-2.73h-10.795v5.305H130.488z"/>
		<path fill="#FFFFFF" d="M165.416,194.951H161.2l-4.937-6.93h-9.369v6.93h-3.68v-18.859h15.242c2.003,0,3.598,0.543,4.784,1.625
			c1.185,1.084,1.778,2.535,1.778,4.355c0,3.127-1.563,5.039-4.691,5.734L165.416,194.951z M157.904,184.709
			c2.228,0,3.342-0.857,3.342-2.574c0-1.82-1.186-2.73-3.557-2.73h-10.795v5.305H157.904z"/>
		<path fill="#FFFFFF" d="M194.304,185.475c0,3.088-1.318,5.604-3.956,7.545c-2.249,1.656-5.06,2.484-8.433,2.484
			c-3.373,0-6.194-0.828-8.464-2.484c-2.637-1.922-3.956-4.436-3.956-7.545c0-3.066,1.329-5.559,3.987-7.482
			c2.331-1.695,5.141-2.543,8.433-2.543c3.271,0,6.072,0.848,8.402,2.543C192.974,179.936,194.304,182.43,194.304,185.475z
			 M190.471,185.461c0-1.947-0.799-3.551-2.396-4.811c-1.598-1.26-3.656-1.891-6.175-1.891c-2.54,0-4.613,0.635-6.22,1.906
			c-1.608,1.271-2.412,2.867-2.412,4.795c0,2.008,0.789,3.631,2.366,4.871s3.667,1.859,6.267,1.859c2.582,0,4.655-0.619,6.221-1.859
			C189.687,189.092,190.471,187.469,190.471,185.461z"/>
		<path fill="#FFFFFF" d="M217.855,194.951h-18.247v-18.859h3.68v15.547h14.566V194.951z"/>
		<path fill="#FFFFFF" d="M240.088,194.951h-18.246v-18.859h3.68v15.547h14.566V194.951z"/>
		<path fill="#FFFFFF" d="M267.749,185.475c0,3.088-1.318,5.604-3.957,7.545c-2.249,1.656-5.059,2.484-8.433,2.484
			c-3.373,0-6.194-0.828-8.464-2.484c-2.637-1.922-3.956-4.436-3.956-7.545c0-3.066,1.329-5.559,3.986-7.482
			c2.331-1.695,5.142-2.543,8.433-2.543c3.271,0,6.072,0.848,8.402,2.543C266.419,179.936,267.749,182.43,267.749,185.475z
			 M263.916,185.461c0-1.947-0.799-3.551-2.397-4.811c-1.597-1.26-3.656-1.891-6.175-1.891c-2.54,0-4.613,0.635-6.221,1.906
			s-2.412,2.867-2.412,4.795c0,2.008,0.789,3.631,2.366,4.871c1.577,1.24,3.667,1.859,6.267,1.859c2.581,0,4.654-0.619,6.221-1.859
			C263.132,189.092,263.916,187.469,263.916,185.461z"/>
		<path fill="#FFFFFF" d="M307.385,176.092l-10.426,18.859h-4.232l-10.426-18.859h4.065l8.477,15.652l8.478-15.652H307.385z"/>
		<path fill="#FFFFFF" d="M314.438,194.951h-3.68v-18.859h3.68V194.951z"/>
		<path fill="#FFFFFF" d="M337.958,180.754c-2.453-1.289-5.121-1.934-8.004-1.934c-4.19,0-6.286,0.748-6.286,2.238
			c0,0.881,0.786,1.453,2.361,1.719c2.146,0.184,4.293,0.379,6.439,0.582c3.087,0.307,5.285,0.859,6.593,1.656
			c1.452,0.879,2.178,2.219,2.178,4.018c0,2.023-0.904,3.588-2.714,4.691c-1.809,1.105-4.432,1.656-7.866,1.656
			c-4.845,0-8.72-1.104-11.622-3.312l1.993-2.605c2.596,1.82,5.786,2.729,9.567,2.729c2.127,0,3.772-0.27,4.938-0.812
			c1.165-0.541,1.748-1.262,1.748-2.162c0-1-0.717-1.707-2.147-2.115c-0.797-0.225-2.034-0.379-3.711-0.461
			c-2.617-0.123-4.222-0.215-4.814-0.275c-2.331-0.225-4.048-0.725-5.151-1.502c-1.104-0.777-1.656-1.912-1.656-3.404
			c0-1.799,0.883-3.225,2.652-4.277c1.769-1.055,4.248-1.58,7.437-1.58c4.253,0,7.697,0.92,10.335,2.76L337.958,180.754z"/>
		<path fill="#FFFFFF" d="M367.551,188.756c0,1.984-0.991,3.605-2.975,4.861c-1.982,1.258-4.642,1.887-7.973,1.887
			c-3.354,0-6.021-0.629-8.004-1.887c-1.983-1.256-2.975-2.877-2.975-4.861v-12.664h3.68v11.93c0,2.781,2.433,4.17,7.299,4.17
			c4.845,0,7.268-1.389,7.268-4.17v-11.93h3.68V188.756z"/>
		<path fill="#FFFFFF" d="M396.069,194.951h-4.051l-2.17-4.047h-12.674l-2.17,4.047h-4.05l10.272-18.859h4.569L396.069,194.951z
			 M388.01,187.592l-4.479-8.354l-4.516,8.354H388.01z"/>
		<path fill="#FFFFFF" d="M417.935,194.951h-18.247v-18.859h3.681v15.547h14.566V194.951z"/>
		<path fill="#FFFFFF" d="M456.526,194.951h-4.05l-2.17-4.047h-12.674l-2.17,4.047h-4.051l10.272-18.859h4.569L456.526,194.951z
			 M448.468,187.592l-4.48-8.354l-4.515,8.354H448.468z"/>
		<path fill="#FFFFFF" d="M498.923,194.951h-3.681l-0.092-15.516l-9.475,12.848l-9.445-12.971l-0.093,0.123v15.516h-3.68v-18.859
			h5.524l7.689,10.666l7.714-10.666h5.537V194.951z"/>
		<path fill="#FFFFFF" d="M525.663,194.951h-20.301v-18.859h19.596v3.312h-15.916v4.078h11.07v3.312h-11.07v4.844h16.621V194.951z"
			/>
		<path fill="#FFFFFF" d="M542.621,176.092c3.312,0,5.969,0.869,7.973,2.607s3.006,3.965,3.006,6.686
			c0,2.473-1.054,4.844-3.158,7.113c-0.594,0.654-1.533,1.217-2.822,1.688c-1.41,0.512-2.872,0.766-4.385,0.766h-12.818v-18.859
			H542.621z M543.479,191.639c1.799,0,3.276-0.564,4.432-1.693c1.155-1.131,1.732-2.568,1.732-4.316
			c0-1.869-0.613-3.375-1.841-4.514c-1.226-1.141-2.861-1.711-4.906-1.711h-8.801v12.234H543.479z"/>
		<path fill="#FFFFFF" d="M562.309,194.951h-3.68v-18.859h3.68V194.951z"/>
		<path fill="#FFFFFF" d="M580.954,176.092c3.312,0,5.969,0.869,7.973,2.607c2.003,1.738,3.005,3.965,3.005,6.686
			c0,2.473-1.054,4.844-3.158,7.113c-0.594,0.654-1.533,1.217-2.822,1.688c-1.41,0.512-2.872,0.766-4.385,0.766h-12.818v-18.859
			H580.954z M581.812,191.639c1.798,0,3.275-0.564,4.431-1.693c1.155-1.131,1.732-2.568,1.732-4.316c0-1.869-0.613-3.375-1.84-4.514
			c-1.227-1.141-2.862-1.711-4.906-1.711h-8.801v12.234H581.812z"/>
		<path fill="#FFFFFF" d="M619.255,194.951h-4.051l-2.17-4.047H600.36l-2.17,4.047h-4.051l10.273-18.859h4.568L619.255,194.951z
			 M611.195,187.592l-4.48-8.354l-4.515,8.354H611.195z"/>
	</g>
</g>
</svg>
